<?xml version="1.0" standalone="no"?>
<!DOCTYPE svg PUBLIC "-//W3C//DTD SVG 20010904//EN"
 "http://www.w3.org/TR/2001/REC-SVG-20010904/DTD/svg10.dtd">
<svg version="1.0" xmlns="http://www.w3.org/2000/svg"
 width="500.000000pt" height="500.000000pt" viewBox="0 0 500.000000 500.000000"
 preserveAspectRatio="xMidYMid meet">
<metadata>
Created by potrace 1.14, written by Peter Selinger 2001-2017
</metadata>
<g transform="translate(0.000000,500.000000) scale(0.100000,-0.100000)"
fill="#000000" stroke="none">
<path d="M3820 3679 c0 -3 -18 -6 -39 -7 -21 -2 -54 -5 -72 -8 -19 -2 -48 -7
-66 -9 -17 -3 -43 -9 -57 -15 -17 -6 -27 -6 -32 1 -3 6 -10 6 -17 1 -7 -5 -34
-9 -62 -10 -54 -1 -149 -9 -205 -17 -19 -3 -53 -7 -75 -10 -22 -2 -51 -7 -65
-10 -14 -3 -45 -7 -70 -10 -25 -2 -63 -7 -85 -11 -43 -7 -121 -8 -170 -1 -16
2 -41 -1 -55 -6 -14 -5 -43 -10 -66 -11 -22 -1 -45 -6 -52 -10 -7 -4 -17 -4
-23 0 -6 3 -15 1 -19 -7 -6 -8 -35 -13 -92 -14 -47 -1 -89 -5 -96 -8 -6 -4
-13 -3 -17 3 -4 6 -11 8 -16 4 -17 -10 -59 -14 -189 -18 -79 -2 -140 -9 -166
-19 -27 -10 -46 -12 -57 -5 -9 5 -17 5 -17 0 0 -12 -161 -19 -214 -9 -11 2
-37 -5 -60 -16 -42 -21 -85 -27 -201 -30 -38 -1 -76 -6 -82 -10 -8 -5 -13 -4
-13 2 0 6 -12 8 -27 5 -16 -2 -41 -1 -58 4 -34 10 -166 -14 -177 -32 -6 -8 -8
-7 -8 2 0 7 -4 11 -9 7 -20 -12 -106 -13 -120 -2 -9 7 -12 8 -8 1 4 -7 -17
-11 -66 -11 -40 1 -88 -3 -107 -7 -62 -12 -155 -24 -162 -19 -5 2 -8 0 -8 -4
0 -5 -10 -10 -23 -11 -37 -5 -62 -9 -62 -12 0 -1 -17 -4 -38 -6 -21 -1 -44 -8
-51 -13 -7 -6 -16 -8 -19 -4 -4 3 -7 2 -7 -3 0 -5 -9 -10 -20 -11 -23 -2 -154
-77 -181 -104 -22 -22 -79 -52 -79 -42 0 5 -4 3 -8 -4 -4 -6 -14 -13 -22 -15
-34 -7 -45 -31 -46 -102 0 -39 -2 -73 -3 -76 -2 -3 -4 -19 -5 -37 -1 -18 -4
-34 -7 -37 -8 -8 -2 -218 7 -225 5 -3 10 -17 12 -31 4 -31 10 -64 12 -67 2 -2
3 -6 4 -10 1 -5 7 -30 14 -58 6 -27 14 -63 16 -80 2 -16 5 -30 6 -30 1 0 3 -9
5 -20 2 -11 5 -27 8 -35 2 -8 7 -37 11 -65 9 -60 13 -82 21 -115 3 -14 7 -36
10 -50 3 -14 8 -38 11 -55 4 -16 7 -35 7 -42 0 -7 4 -10 9 -7 4 3 8 -1 8 -8 0
-7 18 -41 40 -76 22 -34 40 -67 40 -72 0 -6 5 -10 10 -10 6 0 10 -7 10 -15 0
-8 5 -15 10 -15 6 0 10 -6 10 -13 0 -8 17 -40 38 -73 20 -32 46 -78 56 -101
11 -24 24 -43 29 -43 6 0 8 -3 4 -6 -3 -3 24 -45 60 -92 69 -93 91 -105 162
-97 19 3 41 -1 49 -8 15 -12 212 -19 212 -7 0 8 125 7 130 -1 9 -12 168 -12
220 1 25 6 59 13 75 16 17 3 44 9 60 14 17 6 50 13 75 16 25 4 47 9 50 13 3 3
14 7 25 9 57 7 100 17 163 36 29 8 52 13 52 10 0 -3 7 1 15 8 40 36 33 34 140
42 33 3 71 8 85 11 14 3 39 8 55 11 17 3 35 7 40 8 6 2 28 7 50 11 56 12 55
12 58 15 1 1 17 3 36 5 19 2 46 7 60 11 14 4 35 8 46 9 11 1 34 5 50 10 17 4
37 9 45 10 67 9 178 28 190 33 20 7 38 10 85 16 22 2 40 5 40 7 0 1 9 3 20 4
11 2 34 6 50 9 40 8 93 16 130 19 17 2 36 6 42 10 6 4 28 9 49 11 22 3 54 9
72 15 18 5 33 10 35 9 2 0 99 15 107 17 25 6 107 19 113 17 4 -1 7 2 7 6 0 4
12 7 27 6 14 0 64 7 109 16 46 10 86 15 89 12 3 -3 5 -1 5 4 0 5 8 10 18 10
27 1 125 15 144 20 24 7 60 15 88 19 58 9 103 25 112 39 5 8 8 7 8 -2 0 -10 5
-10 21 -2 11 7 27 9 34 6 8 -3 17 -1 20 3 3 5 25 8 50 8 25 -1 45 0 45 3 0 3
19 6 43 8 45 3 44 2 129 21 32 7 62 10 68 6 5 -3 10 -1 10 4 0 6 16 11 35 11
19 0 35 4 35 8 0 5 12 7 28 5 17 -3 56 10 110 36 45 22 85 40 89 40 3 0 9 3
12 8 3 4 34 21 68 37 42 20 65 37 72 55 14 35 30 111 24 111 -3 0 1 7 8 16 7
9 14 39 15 67 2 47 7 84 20 157 2 14 7 54 10 90 3 36 8 69 11 73 3 4 -1 15 -9
24 -11 14 -11 16 1 8 11 -6 13 -4 8 9 -4 10 -10 30 -13 44 -3 15 -8 34 -11 42
-5 15 -14 76 -14 95 0 6 0 44 1 85 0 41 -2 86 -6 100 -9 36 -10 160 -1 160 4
0 7 5 7 10 0 6 10 27 23 48 13 20 22 42 21 47 -4 24 -17 55 -23 55 -27 2 -89
12 -101 17 -8 3 -24 8 -35 9 -17 3 -36 8 -77 19 -5 2 -11 4 -15 5 -5 1 -12 3
-18 5 -5 1 -13 3 -17 5 -19 6 -34 6 -45 -3 -8 -6 -13 -6 -13 0 0 5 -19 10 -42
12 -23 1 -44 4 -47 6 -4 2 -26 6 -51 10 -25 4 -49 9 -53 12 -5 3 -26 8 -46 10
-20 3 -53 16 -74 31 -21 14 -46 27 -55 27 -9 1 -44 10 -77 19 -66 19 -98 24
-156 28 -21 1 -39 4 -39 8 0 5 -55 33 -72 36 -5 1 -9 2 -10 4 -6 5 -88 5 -88
-1z"/>
</g>
</svg>
